<?xml version="1.0" encoding="UTF-8" standalone="no"?>
<!-- Created with Inkscape (http://www.inkscape.org/) -->

<svg
   xmlns:dc="http://purl.org/dc/elements/1.1/"
   xmlns:cc="http://creativecommons.org/ns#"
   xmlns:rdf="http://www.w3.org/1999/02/22-rdf-syntax-ns#"
   xmlns:svg="http://www.w3.org/2000/svg"
   xmlns="http://www.w3.org/2000/svg"
   xmlns:sodipodi="http://sodipodi.sourceforge.net/DTD/sodipodi-0.dtd"
   xmlns:inkscape="http://www.inkscape.org/namespaces/inkscape"
   width="128"
   height="128"
   id="svg2"
   version="1.1"
   inkscape:version="0.48.2 r9819"
   sodipodi:docname="icons.svg"
   inkscape:export-filename="/Users/fistel/Developer/Sunflower/icons.png"
   inkscape:export-xdpi="90"
   inkscape:export-ydpi="90">
  <defs
     id="defs4" />
  <sodipodi:namedview
     id="base"
     pagecolor="#ffffff"
     bordercolor="#666666"
     borderopacity="1.0"
     inkscape:pageopacity="0.0"
     inkscape:pageshadow="2"
     inkscape:zoom="19.8102"
     inkscape:cx="9.2499814"
     inkscape:cy="90.013465"
     inkscape:document-units="px"
     inkscape:current-layer="layer1"
     showgrid="true"
     inkscape:window-width="1359"
     inkscape:window-height="728"
     inkscape:window-x="4"
     inkscape:window-y="0"
     inkscape:window-maximized="0"
     showguides="true"
     inkscape:guide-bbox="true"
     inkscape:snap-grids="false"
     inkscape:snap-to-guides="false">
    <sodipodi:guide
       orientation="0,1"
       position="5,128"
       id="guide3008" />
    <inkscape:grid
       type="xygrid"
       id="grid3792"
       empspacing="5"
       visible="true"
       enabled="true"
       snapvisiblegridlinesonly="true"
       spacingx="16px"
       spacingy="16px" />
  </sodipodi:namedview>
  <metadata
     id="metadata7">
    <rdf:RDF>
      <cc:Work
         rdf:about="">
        <dc:format>image/svg+xml</dc:format>
        <dc:type
           rdf:resource="http://purl.org/dc/dcmitype/StillImage" />
        <dc:title></dc:title>
      </cc:Work>
    </rdf:RDF>
  </metadata>
  <g
     inkscape:label="Layer 1"
     inkscape:groupmode="layer"
     id="layer1"
     transform="translate(0,-924.36218)">
    <path
       style="fill:#616668;fill-opacity:1;stroke:#000000;stroke-width:1px;stroke-linecap:butt;stroke-linejoin:miter;stroke-opacity:1"
       d="m 13.913302,931.11716 c -5.2001282,1.40418 -5.8795861,1.50288 -5.8795861,1.50288 l -0.1647322,2.48034 7.0680483,-1.6474 z"
       id="path3786"
       inkscape:connector-curvature="0" />
    <path
       style="fill:#616668;fill-opacity:1;stroke:#000000;stroke-width:1px;stroke-linecap:butt;stroke-linejoin:miter;stroke-opacity:1"
       d="m 9.5129046,931.63489 c -2.057875,5.76895 -2.2259226,5.91796 -2.2259226,5.91796 l -6.2635324,-2.26286 c 0.5752242,-1.9846 -0.33091612,-4.9145 1.6558772,-6.39557 2.9285755,1.07238 4.5668954,2.03669 6.8335644,2.74051 z"
       id="path3784"
       inkscape:connector-curvature="0"
       sodipodi:nodetypes="ccccc" />
    <path
       style="fill:#0097c9;fill-opacity:1;stroke:#000000;stroke-width:1px;stroke-linecap:butt;stroke-linejoin:miter;stroke-opacity:1"
       d="m 6.5789054,928.64521 c -4.3981432,-1.43617 -5.6988359,1.21865 -0.9700707,2.90547 5.0674263,1.80763 5.3682143,-1.4693 0.9700707,-2.90547 z"
       id="path3014"
       inkscape:connector-curvature="0"
       sodipodi:nodetypes="zsz" />
    <path
       style="fill:none;stroke:#0097c9;stroke-width:1px;stroke-linecap:butt;stroke-linejoin:miter;stroke-opacity:1"
       d="m 16.562051,929.82442 c 0,0 4.16121,-3.31527 6.353546,-2.64136 3.712672,1.14124 7.745614,8.9949 7.745614,8.9949"
       id="path3790"
       inkscape:connector-curvature="0"
       sodipodi:nodetypes="csc" />
    <path
       sodipodi:nodetypes="csc"
       inkscape:connector-curvature="0"
       id="path3794"
       d="m 16.383581,931.71621 c 0,0 4.484975,-2.7085 6.496322,-1.60624 3.320037,1.81943 6.781874,8.38811 6.781874,8.38811"
       style="fill:none;stroke:#0097c9;stroke-width:1px;stroke-linecap:butt;stroke-linejoin:miter;stroke-opacity:1" />
    <path
       style="fill:none;stroke:#0097c9;stroke-width:1px;stroke-linecap:butt;stroke-linejoin:miter;stroke-opacity:1"
       d="m 16.419275,933.07258 c 0,0 4.002975,-1.6049 6.067994,-0.60681 2.21352,1.06986 4.783005,7.35299 4.783005,7.35299"
       id="path3796"
       inkscape:connector-curvature="0"
       sodipodi:nodetypes="csc" />
    <path
       style="fill:#1e7400;stroke:none;stroke-width:1px;stroke-linecap:butt;stroke-linejoin:miter;stroke-opacity:1;fill-opacity:1"
       d="M 40.048753,7.7109658 C 39.94167,19.31154 39.727506,31.947243 39.727506,31.947243 l 2.034562,0 -0.499717,-23.9864187 z"
       id="path3802"
       inkscape:connector-curvature="0"
       transform="translate(0,924.36218)" />
    <path
       sodipodi:type="star"
       style="fill:#c99500;fill-opacity:1;stroke:none"
       id="path3798"
       sodipodi:sides="15"
       sodipodi:cx="34.123535"
       sodipodi:cy="2.6781013"
       sodipodi:r1="11.206803"
       sodipodi:r2="7.3879784"
       sodipodi:arg1="0.79440693"
       sodipodi:arg2="0.96387525"
       inkscape:flatsided="false"
       inkscape:rounded="0.11"
       inkscape:randomized="0.046"
       d="m 41.984861,10.703276 c -0.299172,0.347868 -3.568412,-2.6778283 -3.966292,-2.460993 -0.428951,0.2337682 0.266052,4.736188 -0.176185,4.92783 -0.410203,0.17776 -2.082137,-3.3633567 -2.541368,-3.3254079 -0.495093,0.040912 -1.630345,4.0966529 -2.108918,4.1116629 -0.443908,0.01392 -0.175368,-3.434284 -0.607026,-3.587399 -0.465367,-0.165072 -3.630267,2.363235 -4.06998,2.16811 C 28.10723,12.356087 30.164372,9.0940342 29.794304,8.8302845 29.395337,8.5459384 25.501277,9.8420965 25.196977,9.4690177 24.91472,9.1229627 27.736796,6.9208105 27.554479,6.4952292 27.357925,6.0364139 23.191895,6.3344265 23.081211,5.8608209 22.978544,5.4215207 26.951649,4.0127025 26.953666,3.5576716 26.955842,3.0671069 23.308675,1.3188454 23.37956,0.84198829 23.44531,0.39967203 27.167878,1.0952248 27.331578,0.66191704 27.50806,0.19477185 24.905823,-2.9286336 25.147752,-3.3524871 c 0.224405,-0.3931519 3.577226,1.7157924 3.892193,1.4046089 0.339562,-0.335484 -1.840945,-4.9167568 -1.413032,-5.1742144 0.396917,-0.2388089 3.017609,2.6721191 3.442795,2.5104216 0.458389,-0.1743246 0.794014,-3.2237698 1.284101,-3.3146163 0.454587,-0.084266 1.579075,2.9488106 2.021256,2.9947906 0.47671,0.049571 2.64221,-3.4052059 3.110947,-3.2871888 0.434785,0.1094685 -0.762024,4.0747821 -0.369266,4.2964162 0.42343,0.2389418 3.349165,-2.4789817 3.749247,-2.1870551 0.371102,0.2707811 -1.709665,3.1370442 -1.409605,3.4803875 0.323492,0.3701554 4.474891,-0.5281534 4.700263,-0.1054166 0.209048,0.3921162 -3.408951,2.86576348 -3.284105,3.30288442 0.134595,0.47125608 4.183749,1.17339168 4.251804,1.66289498 0.06312,0.4540464 -3.736942,0.572727 -3.801134,1.0222197 -0.0692,0.4845939 3.91969,2.6548566 3.73368,3.1080528 -0.172537,0.4203692 -4.616259,-0.1589968 -4.842954,0.2249092 -0.244398,0.4138857 2.093452,3.7416344 1.770919,4.1166684 z"
       transform="matrix(0.69486291,0,0,0.69486291,16.429186,930.22192)"
       inkscape:transform-center-x="-0.24926486"
       inkscape:transform-center-y="-0.14775424" />
    <path
       sodipodi:type="arc"
       style="fill:#603802;fill-opacity:1;stroke:none;stroke-opacity:1"
       id="path3800"
       sodipodi:cx="40.423542"
       sodipodi:cy="7.9429774"
       sodipodi:rx="3.2715442"
       sodipodi:ry="2.9118562"
       d="m 43.695086,7.9429774 a 3.2715442,2.9118562 0 1 1 -6.543088,0 3.2715442,2.9118562 0 1 1 6.543088,0 z"
       transform="matrix(0.99236183,0,0,1.1015478,0.16598567,923.55559)" />
    <path
       style="fill:#1e7400;fill-opacity:1;stroke:none"
       d="m 40.155834,948.77797 c -2.176088,1.91809 -5.211335,-3.5694 -4.890088,-7.49575 3.344762,1.11172 7.223822,5.43872 4.890088,7.49575 z"
       id="path3806"
       inkscape:connector-curvature="0"
       sodipodi:nodetypes="scs" />
    <path
       sodipodi:nodetypes="scs"
       inkscape:connector-curvature="0"
       id="path3812"
       d="m 41.415863,954.38902 c 2.727344,2.40397 6.531493,-4.47363 6.128866,-9.39461 -4.192071,1.39335 -9.053791,6.81647 -6.128866,9.39461 z"
       style="fill:#1e7400;fill-opacity:1;stroke:none" />
    <path
       inkscape:connector-curvature="0"
       id="path3827"
       d="m 3.6764897,952.16891 c 2.6413615,0 2.7841375,3.6051 2.7841375,3.6051 l -2.5699731,-0.0357 z"
       style="fill:#cd61f1;fill-opacity:1;stroke:#000000;stroke-width:1px;stroke-linecap:butt;stroke-linejoin:miter;stroke-opacity:1" />
    <path
       style="fill:#cd61f1;stroke:#000000;stroke-width:1px;stroke-linecap:butt;stroke-linejoin:miter;stroke-opacity:1;fill-opacity:1"
       d="m 9.2447656,952.27599 c 2.6413614,0 2.7841374,3.6051 2.7841374,3.6051 L 9.45893,955.8454 z"
       id="path3825"
       inkscape:connector-curvature="0" />
    <path
       style="fill:#cd61f1;fill-opacity:1;stroke:#000000;stroke-opacity:1;stroke-width:1;stroke-miterlimit:4;stroke-dasharray:none"
       d="m 8.8164366,947.95701 c 2.1207184,0.69222 4.1102674,1.91963 3.6051044,5.38981 l -9.8158715,0.10707 1.3563747,-3.99773 c 0,0 -0.2141663,-1.32068 4.8543924,-1.49915 z"
       id="path3821"
       inkscape:connector-curvature="0"
       sodipodi:nodetypes="ccccc" />
    <path
       style="fill:#bfa18d;fill-opacity:1;stroke:#000000;stroke-opacity:1"
       d="m 11.065164,945.08364 c 0,1.80377 -1.7099445,3.266 -3.8192669,3.266 -2.1093225,0 -3.8192661,-1.46223 -3.8192661,-3.266 0,-1.80377 1.7099436,-3.26601 3.8192661,-3.26601 2.1093224,0 3.8192669,1.46224 3.8192669,3.26601 z"
       id="path3816"
       inkscape:connector-curvature="0" />
    <path
       sodipodi:type="arc"
       style="fill:#440e15;fill-opacity:1;stroke:none"
       id="path3829"
       sodipodi:cx="8.7272015"
       sodipodi:cy="20.57868"
       sodipodi:rx="0.73172855"
       sodipodi:ry="0.44617593"
       d="m 9.45893,20.57868 a 0.73172855,0.44617593 0 1 1 -1.4634571,0 0.73172855,0.44617593 0 1 1 1.4634571,0 z"
       transform="matrix(1.6341463,0,0,1.32,-5.2487703,917.56283)" />
    <path
       style="fill:#aa008a;fill-opacity:1;stroke:#000000;stroke-opacity:1"
       d="m 11.100858,942.92414 c -1.9274807,1.05298 -5.6664351,0.87451 -6.1750757,8.10702 -0.2093739,2.97715 -3.4980193,2.0301 -3.4980193,2.0301 0,0 -0.50902645,-10.02734 1.3206808,-11.31502 1.6776295,-1.18065 8.8521312,-2.14164 8.3524142,1.1779 z"
       id="path3819"
       inkscape:connector-curvature="0"
       sodipodi:nodetypes="cscsc" />
    <path
       style="fill:#681e08;fill-opacity:1;stroke:#000000;stroke-width:1.01235437px;stroke-linecap:butt;stroke-linejoin:miter;stroke-opacity:1"
       d="m 2.034475,977.83205 c 11.025515,-0.0366 11.203921,-0.0732 11.203921,-0.0732 l 0.249767,5.26961 -11.4893713,0.1098 z"
       id="path3833"
       inkscape:connector-curvature="0"
       sodipodi:nodetypes="ccccc" />
    <path
       sodipodi:nodetypes="ccccc"
       inkscape:connector-curvature="0"
       id="path3835"
       d="m 10.030922,983.00918 c 11.025515,-0.0366 11.203921,-0.0732 11.203921,-0.0732 l 0.249768,5.26961 -11.4893719,0.10979 z"
       style="fill:#681e08;fill-opacity:1;stroke:#000000;stroke-width:1.01235437px;stroke-linecap:butt;stroke-linejoin:miter;stroke-opacity:1" />
    <path
       style="fill:#681e08;fill-opacity:1;stroke:#000000;stroke-width:1.01235437px;stroke-linecap:butt;stroke-linejoin:miter;stroke-opacity:1"
       d="m 13.42144,977.72226 c 11.025515,-0.0366 11.203921,-0.0732 11.203921,-0.0732 l 0.249768,5.26961 -11.489372,0.10977 z"
       id="path3837"
       inkscape:connector-curvature="0"
       sodipodi:nodetypes="ccccc" />
    <path
       sodipodi:nodetypes="ccccc"
       inkscape:connector-curvature="0"
       id="path3839"
       d="m -1.3830655,983.07612 c 11.025515,-0.0366 11.203921,-0.0732 11.203921,-0.0732 l 0.2497675,5.26961 -11.4893717,0.10979 z"
       style="fill:#681e08;fill-opacity:1;stroke:#000000;stroke-width:1.01235437px;stroke-linecap:butt;stroke-linejoin:miter;stroke-opacity:1" />
    <path
       sodipodi:nodetypes="ccccc"
       inkscape:connector-curvature="0"
       id="path3841"
       d="m 7.7193532,972.54701 c 11.0255148,-0.0366 11.2039208,-0.0732 11.2039208,-0.0732 l 0.249768,5.26962 -11.489372,0.10977 z"
       style="fill:#681e08;fill-opacity:1;stroke:#000000;stroke-width:1.01235437px;stroke-linecap:butt;stroke-linejoin:miter;stroke-opacity:1" />
    <path
       style="fill:#681e08;fill-opacity:1;stroke:#000000;stroke-width:1.01235437px;stroke-linecap:butt;stroke-linejoin:miter;stroke-opacity:1"
       d="m -3.6343602,972.65051 c 11.025515,-0.0366 11.2039211,-0.0732 11.2039211,-0.0732 l 0.2497674,5.26962 -11.4893717,0.10979 z"
       id="path3843"
       inkscape:connector-curvature="0"
       sodipodi:nodetypes="ccccc" />
    <path
       sodipodi:nodetypes="ccccc"
       inkscape:connector-curvature="0"
       id="path3845"
       d="m -9.2354169,977.88006 c 11.025515,-0.0366 11.2039211,-0.0732 11.2039211,-0.0732 l 0.2497674,5.26961 -11.4893717,0.10978 z"
       style="fill:#681e08;fill-opacity:1;stroke:#000000;stroke-width:1.01235437px;stroke-linecap:butt;stroke-linejoin:miter;stroke-opacity:1" />
    <rect
       style="fill:#552200;fill-opacity:1;stroke:none"
       id="rect3847"
       width="16.355211"
       height="15.749461"
       x="-0.3028743"
       y="32.039333"
       transform="translate(0,924.36218)" />
    <rect
       style="fill:#230e00;fill-opacity:1;stroke:none"
       id="rect3849"
       width="3.3316171"
       height="2.170599"
       x="316.9986"
       y="904.98041"
       transform="matrix(0.94438113,0.32885297,-0.32885297,0.94438113,0,0)"
       ry="1.0852995" />
    <rect
       ry="1.0852995"
       transform="matrix(0.7160753,-0.69802304,0.69802304,0.7160753,0,0)"
       y="694.14905"
       x="-664.35809"
       height="2.170599"
       width="3.3316171"
       id="rect3851"
       style="fill:#230e00;fill-opacity:1;stroke:none" />
    <rect
       style="fill:#230e00;fill-opacity:1;stroke:none"
       id="rect3853"
       width="4.0895019"
       height="2.6653953"
       x="-660.05078"
       y="688.99963"
       transform="matrix(0.71080883,-0.70338525,0.69262348,0.72129932,0,0)"
       ry="1.3326976" />
    <rect
       ry="1.3343545"
       transform="matrix(0.99856525,0.05354841,-0.09282328,0.9956826,0,0)"
       y="965.92181"
       x="99.572739"
       height="2.668709"
       width="4.8439407"
       id="rect3855"
       style="fill:#230e00;fill-opacity:1;stroke:none" />
    <rect
       style="fill:#230e00;fill-opacity:1;stroke:none"
       id="rect3857"
       width="4.8439407"
       height="2.668709"
       x="964.12415"
       y="-10.330172"
       transform="matrix(-0.00360593,0.9999935,-0.99907612,-0.04297576,0,0)"
       ry="1.3343545" />
  </g>
</svg>
